<svg version="1.1" id="Layer_1" xmlns="http://www.w3.org/2000/svg" xmlns:xlink="http://www.w3.org/1999/xlink" x="0px" y="0px"
	 width="100%" viewBox="0 0 666 610" enable-background="new 0 0 666 610" xml:space="preserve">
<path fill="#000000" opacity="1.000000" stroke="none" 
	d="
M1.000000,220.000000 
	C1.000000,146.680923 1.000000,73.861855 1.000000,1.021391 
	C222.942276,1.021391 444.884552,1.021391 666.913452,1.021391 
	C666.913452,204.235764 666.913452,407.471588 666.913452,610.853699 
	C445.000061,610.853699 223.000046,610.853699 1.000000,610.853699 
	C1.000000,480.782104 1.000000,350.641052 1.000000,220.000000 
M542.896484,114.346054 
	C542.263550,113.955193 541.630554,113.564323 540.351807,112.881432 
	C538.226562,110.397186 536.521912,107.256172 533.886536,105.568497 
	C528.751038,102.279686 526.811890,95.182724 519.585693,93.981758 
	C519.585693,93.981758 519.192749,94.012741 519.014709,93.259163 
	C516.654907,90.626678 514.504150,87.753387 511.855072,85.454300 
	C510.328156,84.129112 507.995667,83.732124 506.009888,82.987091 
	C506.009888,82.987091 506.077271,82.963036 505.866364,82.319626 
	C503.875916,80.931702 501.885468,79.543770 499.511383,77.978401 
	C499.511383,77.978401 499.091187,77.932777 498.945496,77.236549 
	C498.175049,76.220848 497.609375,74.883553 496.601013,74.241631 
	C490.029602,70.058258 483.525879,65.721283 476.675323,62.038464 
	C471.014618,58.995308 464.906891,56.783623 458.339081,53.887634 
	C457.236664,53.557026 456.134216,53.226421 454.988831,52.989296 
	C454.988831,52.989296 455.081421,53.034149 454.931061,52.608665 
	C454.802429,52.277931 454.563141,52.140617 453.720734,51.996914 
	C453.543671,52.002365 453.366608,52.007820 452.871552,51.361164 
	C449.707550,49.561928 446.716431,47.287254 443.344025,46.061214 
	C436.042938,43.406918 428.546661,41.289574 420.798828,38.260651 
	C414.201813,36.558395 407.604797,34.856136 400.187714,33.015087 
	C399.358673,33.005276 398.514526,33.094299 397.702881,32.970375 
	C389.464783,31.712584 381.231964,30.420038 372.095276,29.001608 
	C368.102692,28.651218 364.110077,28.300829 359.691650,27.170916 
	C347.756836,27.107517 335.821991,27.028315 323.887146,27.022526 
	C323.217377,27.022200 322.547333,27.626854 320.965240,28.010805 
	C312.183685,28.664612 303.337921,28.874166 294.643341,30.130074 
	C288.947662,30.952799 283.470734,33.289696 277.231262,35.000557 
	C277.019165,35.066704 276.807037,35.132851 275.835327,35.098701 
	C270.476044,36.389275 265.036987,37.420956 259.779053,39.040531 
	C254.098206,40.790367 248.586563,43.089558 242.369278,44.991188 
	C241.895004,45.302586 241.420746,45.613979 241.000000,45.999847 
	C241.000000,45.999847 240.946503,45.926174 240.160645,45.972572 
	C236.425293,47.606609 232.689957,49.240650 228.201477,51.000240 
	C223.451309,53.296066 218.701126,55.591888 213.457184,58.071438 
	C213.279282,58.362289 213.101379,58.653145 212.990158,58.988506 
	C212.990158,58.988506 212.964386,58.912609 212.201370,59.006016 
	C207.119736,61.966034 202.038086,64.926056 196.229980,68.008202 
	C191.728256,70.917511 187.156464,73.725845 182.755585,76.780426 
	C180.678940,78.221771 178.930115,80.135361 176.310562,81.942787 
	C171.851425,85.598373 167.392288,89.253952 162.220871,93.017288 
	C159.448105,95.297287 156.675339,97.577286 153.259216,100.134789 
	C152.479492,101.729179 151.699753,103.323578 150.998169,104.998169 
	C150.998169,104.998169 150.913559,104.924858 150.281036,105.052559 
	C149.876907,105.623367 149.472794,106.194183 148.825012,106.803146 
	C148.825012,106.803146 148.785797,107.046631 148.126236,107.077538 
	C141.806747,113.686668 135.487259,120.295799 128.896439,127.552834 
	C124.251198,133.993652 119.605949,140.434479 114.231819,146.971924 
	C111.022095,151.589432 107.667145,156.115005 104.661919,160.861969 
	C103.082497,163.356766 102.115005,166.238968 100.210304,169.206604 
	C96.135719,177.512970 91.804039,185.706055 88.076027,194.165161 
	C85.547478,199.902588 83.866524,206.013565 81.914429,212.413651 
	C81.914429,212.413651 81.986389,212.876877 81.298332,213.211380 
	C79.857536,216.887283 78.046165,220.466003 77.051300,224.258865 
	C74.822029,232.757843 72.719131,241.310760 71.096344,249.941650 
	C69.728615,257.216034 69.110703,264.631378 68.029266,272.671112 
	C68.077492,273.132690 68.125710,273.594299 67.751160,274.803772 
	C67.501289,275.539551 67.035477,276.274750 67.033386,277.011230 
	C66.990578,292.121796 66.974159,307.232666 67.050934,322.342987 
	C67.057014,323.541290 67.782066,324.735962 68.028053,326.856689 
	C68.342651,332.358398 68.222427,337.930695 69.100288,343.341003 
	C69.897949,348.257111 71.781120,352.997101 73.065300,358.489868 
	C73.422295,358.762970 73.779289,359.036072 74.110512,360.049347 
	C73.824837,361.570496 73.030838,363.208252 73.348038,364.591095 
	C74.330925,368.876068 75.531586,373.139893 77.055550,377.261078 
	C77.955254,379.694092 79.626564,381.841766 80.760056,384.730652 
	C81.238251,385.955292 81.716446,387.179962 81.754478,388.921967 
	C81.683891,389.617065 81.352821,390.416809 81.583435,390.990936 
	C83.655640,396.150238 85.823013,401.271332 87.969414,406.400726 
	C90.369514,412.136383 92.587135,417.960754 95.290070,423.550232 
	C96.167122,425.363922 98.322838,426.559265 99.977997,428.629486 
	C100.045799,428.816956 100.113609,429.004395 100.101440,429.810974 
	C100.635612,430.836121 101.169777,431.861237 101.944550,433.548065 
	C102.637207,434.959534 103.329865,436.371033 103.402214,438.089050 
	C107.558281,444.415009 111.714348,450.740967 115.982063,457.774994 
	C118.603508,461.195129 121.224953,464.615295 123.974030,468.742126 
	C132.963715,478.537720 141.953384,488.333313 151.060318,498.599365 
	C151.246887,498.901733 151.517792,499.055908 152.128632,499.689697 
	C156.731232,503.479919 161.333832,507.270142 166.000671,511.002991 
	C166.000671,511.002991 165.939621,511.065613 166.156784,511.710510 
	C170.448166,515.337402 174.535675,519.252441 179.105469,522.485840 
	C181.962158,524.507080 185.545624,525.501282 189.030670,527.547668 
	C189.379120,527.771057 189.727570,527.994446 190.353745,528.770508 
	C191.146301,529.276184 191.938858,529.781860 192.786896,530.035339 
	C192.786896,530.035339 192.764526,530.292419 192.590485,531.006958 
	C199.393051,534.838623 206.061081,538.938171 213.030167,542.438354 
	C223.165955,547.528992 233.246902,552.925659 243.852280,556.831421 
	C255.399872,561.084290 267.422913,564.193848 279.421661,567.026611 
	C288.804840,569.241882 298.467529,570.273315 308.763153,572.230225 
	C312.819885,572.523560 316.876587,572.816895 321.304535,573.828064 
	C333.930908,573.991516 346.557068,574.184082 359.183960,574.261902 
	C360.166565,574.267944 361.154083,573.470337 362.949921,573.016907 
	C364.297882,572.962219 365.645813,572.907532 367.812714,572.989868 
	C369.869080,572.595764 371.925446,572.201599 374.881622,571.964111 
	C385.945831,571.912170 396.638855,569.811584 407.892761,566.027222 
	C416.936279,563.294373 425.979767,560.561584 435.717194,557.999756 
	C436.515076,557.692810 437.312927,557.385864 438.018066,557.022827 
	C438.018066,557.022827 438.076324,557.114197 438.841980,557.020813 
	C443.309906,555.117432 447.805359,553.274292 452.220459,551.255371 
	C453.019135,550.890198 453.488037,549.803833 454.781128,548.797913 
	C457.815430,547.478882 460.849762,546.159912 464.659271,544.999695 
	C465.157104,544.997009 465.765167,545.182312 466.136719,544.964355 
	C476.911865,538.643311 487.849701,532.571228 498.343872,525.811035 
	C504.003021,522.165466 508.896271,517.331055 514.759583,512.784790 
	C520.840698,507.126678 526.921875,501.468536 533.658813,495.817352 
	C535.122681,494.237671 536.586548,492.657990 538.013000,491.013153 
	C538.013000,491.013153 538.071838,491.059845 538.781921,491.025177 
	C542.804443,485.992767 546.826904,480.960327 551.017700,475.215088 
	C552.689148,472.857056 554.360657,470.499023 556.785645,468.033478 
	C557.552856,467.839478 558.703613,467.902222 559.030762,467.413574 
	C565.763123,457.358521 572.401794,447.240601 579.714478,436.832214 
	C580.773071,435.049591 581.996643,433.343384 582.863586,431.472015 
	C588.532898,419.234070 594.325195,407.045563 599.604797,394.639771 
	C600.965332,391.442841 600.634399,387.526031 601.299927,383.222473 
	C602.556274,379.170471 603.812622,375.118469 605.854675,371.011200 
	C606.425171,370.333862 607.359436,369.728882 607.510864,368.968140 
	C609.412415,359.413574 611.413574,349.870300 612.943115,340.253174 
	C613.953979,333.897369 614.245728,327.427155 615.011414,320.574921 
	C615.011414,320.574921 615.058289,320.118164 615.831543,319.683563 
	C615.893738,307.630402 616.027649,295.576691 615.929932,283.524811 
	C615.917297,281.965363 614.707275,280.415619 614.006226,277.948151 
	C614.639099,263.486328 611.528748,249.476334 608.083435,235.645660 
	C605.083435,223.602371 601.091919,211.767517 596.874573,200.080139 
	C594.239136,192.776794 590.372742,185.917618 587.017700,178.129898 
	C585.999329,176.702850 584.814087,175.365387 583.991821,173.833130 
	C580.618958,167.548035 577.356567,161.203613 573.803589,154.227753 
	C568.966980,147.404114 564.266113,140.478378 559.241150,133.796371 
	C556.379272,129.990677 552.988220,126.582962 549.839111,122.302917 
	C548.255371,120.839874 546.671570,119.376831 545.021912,117.260384 
	C544.372803,116.489296 543.723694,115.718208 543.012878,114.987221 
	C543.012878,114.987221 543.054565,114.926643 542.896484,114.346054 
z"/>
<path fill="#F4C848" opacity="1.000000" stroke="none" 
	d="
M82.194649,388.404602 
	C81.716446,387.179962 81.238251,385.955292 81.008926,384.198914 
	C79.402756,376.255646 77.576660,368.836548 75.650528,361.443512 
	C75.444862,360.654144 74.655090,360.016968 74.136292,359.309174 
	C73.779289,359.036072 73.422295,358.762970 73.444885,358.102417 
	C73.992546,357.020508 74.391556,356.291687 74.294075,355.636749 
	C72.819084,345.727081 71.278961,335.827087 69.792068,325.567505 
	C69.697197,324.509583 69.564346,323.809052 69.566315,322.736328 
	C69.406097,320.926025 69.111053,319.487885 68.850586,317.579407 
	C68.878891,305.395020 68.872620,293.680908 69.139084,281.694458 
	C69.479622,279.584991 69.547409,277.747955 69.699051,275.611145 
	C69.775620,274.897949 69.768326,274.484497 69.859451,273.731415 
	C69.941452,272.923157 69.925026,272.454468 69.997513,271.587402 
	C72.567772,252.330521 76.224167,233.728958 82.129112,215.609146 
	C82.392838,214.799835 82.047844,213.792160 81.986389,212.876877 
	C81.986389,212.876877 81.914429,212.413651 82.219604,212.111481 
	C83.096840,211.260147 83.911697,210.817169 84.205170,210.146149 
	C90.193642,196.453964 96.122528,182.735718 102.328941,168.819656 
	C104.856461,164.788361 107.164597,160.986420 109.366249,157.123795 
	C111.293221,153.743073 113.100533,150.294113 114.960709,146.875290 
	C119.605949,140.434479 124.251198,133.993652 129.384628,127.239670 
	C136.177139,120.299889 142.481476,113.673264 148.785797,107.046631 
	C148.785797,107.046631 148.825012,106.803146 149.245941,106.771446 
	C150.082428,106.134781 150.497986,105.529823 150.913559,104.924858 
	C150.913559,104.924858 150.998169,104.998169 151.276215,104.924500 
	C152.411194,104.019417 153.268127,103.188004 154.441528,102.214172 
	C157.483063,99.017685 160.208115,95.963615 162.933167,92.909538 
	C167.392288,89.253952 171.851425,85.598373 176.948181,81.952469 
	C184.055939,77.618050 190.526062,73.273964 197.356140,68.937805 
	C201.938065,66.654999 206.213959,64.455429 210.345993,62.012527 
	C211.445419,61.362541 212.103622,59.966255 212.964386,58.912613 
	C212.964386,58.912609 212.990158,58.988506 213.207886,59.080395 
	C213.609497,59.171619 213.793365,59.170956 214.355362,59.149250 
	C219.493607,56.761703 224.253723,54.395199 229.393021,52.032265 
	C233.496964,49.999283 237.221725,47.962727 240.946503,45.926170 
	C240.946503,45.926174 241.000000,45.999847 241.262466,46.217117 
	C242.025024,46.348534 242.525101,46.262672 243.422913,46.135403 
	C254.402023,42.957481 264.987488,39.834354 275.550995,36.638622 
	C276.002747,36.501953 276.251526,35.694153 276.594879,35.198997 
	C276.807037,35.132851 277.019165,35.066704 277.839844,35.199532 
	C288.553192,33.766178 298.645966,32.053967 308.767822,30.535400 
	C313.789276,29.782034 318.864166,29.384588 324.357605,28.872498 
	C336.215118,28.894146 347.629883,28.869411 359.350220,29.113239 
	C364.096680,29.605276 368.537598,29.828751 373.291962,30.276651 
	C382.736450,32.003288 391.867493,33.505501 401.355164,35.132652 
	C407.644836,36.626900 413.577881,37.996212 419.720825,39.659229 
	C423.934113,41.398384 427.939453,42.838612 431.940582,44.290432 
	C439.024933,46.861000 446.106689,49.438614 453.189545,52.013271 
	C453.366608,52.007820 453.543671,52.002365 454.094543,52.253887 
	C454.757721,52.585369 454.962097,52.759796 455.081421,53.034149 
	C455.081421,53.034149 454.988831,52.989296 455.139099,53.257492 
	C456.525726,54.006073 457.762085,54.486454 459.308105,55.119225 
	C463.592285,57.221069 467.566803,59.170525 471.730835,61.360359 
	C472.289490,61.758598 472.658691,61.916458 473.266785,62.201630 
	C474.177734,62.590107 474.849731,62.851269 475.725769,63.369057 
	C476.316376,63.817726 476.702881,64.009773 477.294617,64.448059 
	C484.696930,69.107117 491.894073,73.519943 499.091187,77.932770 
	C499.091187,77.932777 499.511383,77.978401 499.741577,78.414917 
	C502.006958,80.221962 504.042114,81.592506 506.077271,82.963043 
	C506.077271,82.963036 506.009888,82.987091 506.004395,83.298660 
	C510.396851,87.077728 514.794800,90.545235 519.192749,94.012741 
	C519.192749,94.012741 519.585693,93.981758 519.802002,94.400612 
	C527.007080,101.608902 533.995789,108.398338 541.346924,115.319565 
	C542.157654,115.276451 542.606140,115.101547 543.054565,114.926643 
	C543.054565,114.926643 543.012878,114.987221 542.791382,115.236267 
	C542.974731,116.330414 543.379700,117.175522 543.834290,118.314957 
	C544.277649,119.006813 544.671326,119.404343 545.165771,120.095474 
	C546.118530,121.265297 546.970642,122.141495 547.922241,123.348877 
	C550.880737,127.315254 553.811401,130.896774 556.583801,134.596863 
	C562.320251,142.252716 567.972534,149.971634 573.711121,157.991821 
	C578.115051,166.066605 582.467224,173.814178 586.895203,181.900955 
	C587.984192,184.871826 588.912415,187.539932 590.023926,190.129395 
	C598.972168,210.976624 605.980774,232.401337 609.292480,254.917999 
	C610.667480,264.266357 611.892517,273.636749 613.114868,283.461914 
	C613.056824,295.622925 613.069580,307.319153 612.865295,319.255798 
	C612.665527,320.333008 612.682800,321.169769 612.528076,322.431030 
	C611.339233,330.527466 610.436401,338.216766 609.275146,345.866821 
	C607.997070,354.285522 606.481262,362.668152 605.069031,371.066467 
	C603.812622,375.118469 602.556274,379.170471 601.014771,383.893555 
	C597.272461,392.935150 594.025452,401.400574 590.300842,409.650330 
	C586.315491,418.477386 581.880005,427.101166 577.344116,435.944824 
	C573.157227,442.170898 569.316040,448.297821 565.361084,454.350464 
	C562.325745,458.995819 559.147034,463.547577 556.032104,468.140991 
	C554.360657,470.499023 552.689148,472.857056 550.579102,475.578674 
	C545.944031,480.553040 541.738770,485.155945 537.590515,489.809631 
	C537.454529,489.962128 537.898315,490.631439 538.071838,491.059845 
	C538.071838,491.059845 538.013000,491.013153 537.767578,490.786804 
	C536.683533,490.987213 535.844971,491.413971 534.769104,491.852142 
	C534.221436,492.270996 533.911011,492.678406 533.484070,493.195343 
	C533.233887,493.469452 533.088684,493.623016 532.596436,493.848877 
	C525.462219,500.273071 518.663391,506.614014 511.600128,513.150146 
	C510.740234,513.634277 510.109711,513.868103 509.554352,514.220337 
	C495.052460,523.418579 480.544189,532.607117 466.094635,541.886963 
	C465.125214,542.509521 464.610321,543.839722 463.884033,544.840881 
	C460.849762,546.159912 457.815430,547.478882 454.049561,548.891357 
	C448.214081,550.998535 443.110138,553.012329 437.618347,555.016602 
	C429.819794,557.354553 422.409119,559.702026 414.998047,561.647400 
	C416.227844,559.366516 417.408508,557.452515 418.709534,555.624146 
	C419.340515,554.737427 420.273682,554.069580 420.935577,553.200195 
	C422.303009,551.404175 423.379578,549.345581 424.931396,547.738403 
	C430.065186,542.421265 435.358582,537.258423 440.587860,532.033508 
	C446.079529,526.546448 451.563690,521.051819 457.058929,515.568298 
	C462.175110,510.463043 467.251099,505.316040 472.436951,500.282410 
	C478.093567,494.791901 483.467255,488.889709 489.740265,484.206360 
	C492.776581,481.939545 493.912964,480.310608 491.752014,477.682831 
	C485.497009,470.076355 478.921722,462.732758 472.430786,455.322266 
	C472.170410,455.024994 471.488800,455.096680 470.700867,454.842102 
	C466.341064,450.092316 462.309662,445.473541 458.192108,440.932861 
	C457.706787,440.397705 456.748322,440.291565 455.965363,439.633820 
	C452.183228,435.589355 448.473999,431.867493 444.692810,428.220215 
	C443.099060,426.682922 441.353577,425.302948 439.781677,423.480103 
	C442.040283,422.436554 444.150879,421.507965 446.355499,421.134888 
	C458.104004,419.146484 469.424652,415.998047 479.461334,409.289398 
	C497.151031,397.465271 503.389130,373.944397 493.872253,355.003601 
	C488.144775,343.604706 478.144745,337.605774 466.432098,334.320526 
	C462.320862,333.167358 461.671906,331.329315 462.053162,327.639648 
	C462.941132,319.046631 463.576691,310.424774 464.163635,301.804321 
	C464.655334,294.582611 461.276520,289.070068 456.129150,284.356506 
	C445.273926,274.416046 432.098389,268.957611 418.228729,265.065826 
	C414.382477,263.986572 413.404572,262.291992 414.132996,258.771332 
	C414.769806,255.693527 415.528717,252.606125 415.769348,249.487137 
	C416.903656,234.783951 412.884216,221.264343 406.561249,208.126114 
	C401.303955,197.202133 396.026703,186.186142 392.094696,174.751373 
	C387.053436,160.090744 389.716278,145.185806 393.325287,130.506760 
	C393.868134,128.298798 393.920654,125.970314 394.200012,123.697578 
	C393.700775,123.523003 393.201538,123.348427 392.702332,123.173851 
	C391.541199,124.238403 390.159729,125.142860 389.252319,126.391762 
	C377.628052,142.391174 372.076996,159.950790 375.492157,179.864136 
	C377.915985,193.997025 383.958282,206.739319 390.185333,219.447113 
	C395.763702,230.831039 398.751709,242.824341 398.155243,255.588974 
	C398.050049,257.840576 398.147705,259.931793 394.639465,259.447327 
	C383.454102,257.902649 372.248169,256.477844 361.020569,255.285202 
	C357.438263,254.904663 357.057312,253.651276 357.954559,250.455399 
	C362.663940,233.681870 362.670898,216.707870 356.914154,200.371933 
	C352.347076,187.411880 346.109039,175.015900 340.236450,162.546768 
	C332.308777,145.714188 324.989990,128.578522 326.279175,109.597618 
	C327.117889,97.249802 330.187439,85.059326 332.078552,72.770813 
	C332.357574,70.957672 331.645599,68.992012 331.392151,67.096924 
	C329.679504,68.086792 327.446289,68.676537 326.332031,70.126297 
	C308.602905,93.194099 302.131378,118.833549 308.601685,147.546371 
	C312.337006,164.122375 319.608337,179.256134 326.927002,194.364975 
	C335.559082,212.185257 339.412262,230.718094 336.987610,250.483963 
	C336.666382,253.102737 335.966522,254.259247 333.141235,254.385529 
	C325.830536,254.712296 318.532501,255.340149 311.233063,255.895813 
	C306.332886,256.268829 301.438995,256.723846 296.067169,257.182770 
	C296.067169,254.709641 295.946136,252.921036 296.087524,251.153397 
	C296.810760,242.111771 296.460754,233.118576 293.168976,224.611389 
	C289.996918,216.413559 286.486969,208.310898 282.564178,200.446411 
	C273.961365,183.199524 267.396088,165.598557 271.034485,145.838577 
	C272.086487,140.125168 273.623718,134.502167 274.751526,128.800720 
	C274.973511,127.678345 274.336243,126.386002 274.095276,125.172050 
	C272.837128,125.669876 271.092590,125.798805 270.393402,126.720604 
	C259.095306,141.615723 253.410889,158.205200 255.533920,177.097107 
	C257.239899,192.277832 263.447998,205.891815 270.176361,219.308975 
	C275.402100,229.729736 278.415741,240.694931 278.867035,252.338699 
	C279.176880,260.332153 278.978516,260.292664 271.282715,262.162415 
	C257.324707,265.553619 243.789505,270.079803 231.531784,277.843719 
	C220.525620,284.814911 214.306244,293.735413 214.861694,307.789246 
	C216.240128,342.665070 222.529800,376.494965 234.462845,409.201141 
	C241.049957,427.255096 247.509171,445.653625 263.917358,458.305603 
	C267.701172,462.594666 271.220337,466.732178 275.144836,470.440704 
	C281.235596,476.196320 287.602509,481.659729 293.913086,487.571869 
	C296.956238,490.942902 299.938629,493.989075 303.081909,497.328491 
	C308.476837,502.455505 313.710907,507.289307 318.989441,512.460938 
	C322.327972,515.884399 325.622070,518.969971 328.966583,522.397156 
	C333.010529,526.829102 337.004059,530.919434 341.033234,535.353638 
	C344.375702,538.800537 347.682495,541.903748 351.029053,545.351562 
	C355.710510,550.132446 360.352203,554.568665 365.030487,559.350342 
	C367.717651,563.132629 370.368195,566.569336 372.976349,570.222412 
	C372.933960,570.438782 372.765472,570.846252 372.358795,570.819641 
	C370.307922,570.903015 368.663727,571.013000 366.576355,571.064819 
	C363.097412,571.360840 360.061584,571.715149 356.557251,572.025879 
	C346.046936,572.024170 336.005157,572.065979 325.645081,571.857971 
	C319.532318,571.202454 313.737885,570.796814 307.617676,570.287720 
	C306.838318,570.190552 306.384705,570.196716 305.809143,569.989380 
	C305.121613,569.841125 304.556000,569.906311 303.581543,569.943481 
	C295.721222,568.390686 288.252747,566.944214 280.821320,565.327332 
	C252.036407,559.064453 225.159561,548.047668 199.929291,532.885010 
	C197.793167,531.601318 195.164413,531.137268 192.764526,530.292419 
	C192.764526,530.292419 192.786896,530.035339 192.872223,529.878418 
	C191.997025,529.220276 191.036514,528.719116 190.076019,528.217896 
	C189.727570,527.994446 189.379120,527.771057 188.881226,526.930176 
	C182.372467,521.331787 176.057770,516.291382 169.599258,511.442535 
	C168.758789,510.811523 167.177673,511.167023 165.939621,511.065613 
	C165.939621,511.065613 166.000671,511.002991 166.191650,510.707489 
	C164.595367,508.583099 162.808105,506.754211 160.764938,504.778687 
	C160.312500,504.626129 160.115967,504.620148 159.785507,504.339478 
	C157.480896,501.952454 155.310211,499.840118 153.047455,497.534241 
	C152.780930,497.098755 152.549759,496.938538 152.140640,496.542786 
	C143.317352,486.821808 134.615311,477.418182 125.917587,467.666748 
	C123.104492,463.823090 120.287064,460.327209 117.372795,456.479614 
	C115.499771,453.192810 113.914650,450.118134 111.898308,447.358582 
	C109.464050,444.027008 106.664154,440.962555 104.022522,437.782501 
	C103.329865,436.371033 102.637207,434.959534 102.065811,433.063293 
	C101.518532,431.449615 100.849976,430.320740 100.181427,429.191864 
	C100.113609,429.004395 100.045799,428.816956 99.910400,427.970245 
	C95.554962,417.625549 91.296669,407.926819 86.963028,398.261902 
	C85.470268,394.932770 83.789528,391.687927 82.194649,388.404602 
z"/>
<path fill="#FDF8EB" opacity="1.000000" stroke="none" 
	d="
M192.677505,530.649658 
	C195.164413,531.137268 197.793167,531.601318 199.929291,532.885010 
	C225.159561,548.047668 252.036407,559.064453 280.821320,565.327332 
	C288.252747,566.944214 295.721222,568.390686 303.710754,570.164917 
	C304.809601,570.343811 305.370361,570.273376 305.931091,570.202881 
	C306.384705,570.196716 306.838318,570.190552 307.628418,570.525391 
	C307.984009,571.187561 307.997711,571.508972 308.006012,571.830688 
	C298.467529,570.273315 288.804840,569.241882 279.421661,567.026611 
	C267.422913,564.193848 255.399872,561.084290 243.852280,556.831421 
	C233.246902,552.925659 223.165955,547.528992 213.030167,542.438354 
	C206.061081,538.938171 199.393051,534.838623 192.677505,530.649658 
z"/>
<path fill="#FDF8E7" opacity="1.000000" stroke="none" 
	d="
M613.185730,282.997131 
	C611.892517,273.636749 610.667480,264.266357 609.292480,254.917999 
	C605.980774,232.401337 598.972168,210.976624 590.023926,190.129395 
	C588.912415,187.539932 587.984192,184.871826 586.947632,181.449310 
	C586.969116,180.058670 587.013916,179.458908 587.058655,178.859131 
	C590.372742,185.917618 594.239136,192.776794 596.874573,200.080139 
	C601.091919,211.767517 605.083435,223.602371 608.083435,235.645660 
	C611.528748,249.476334 614.639099,263.486328 614.016846,278.734558 
	C613.746887,280.679688 613.466309,281.838409 613.185730,282.997131 
z"/>
<path fill="#FDF8E8" opacity="1.000000" stroke="none" 
	d="
M577.640991,435.813690 
	C581.880005,427.101166 586.315491,418.477386 590.300842,409.650330 
	C594.025452,401.400574 597.272461,392.935150 600.905029,384.252258 
	C600.634399,387.526031 600.965332,391.442841 599.604797,394.639771 
	C594.325195,407.045563 588.532898,419.234070 582.863586,431.472015 
	C581.996643,433.343384 580.773071,435.049591 579.220032,436.697968 
	C578.364075,436.313721 578.002502,436.063690 577.640991,435.813690 
z"/>
<path fill="#FDF8E7" opacity="1.000000" stroke="none" 
	d="
M464.271667,544.920288 
	C464.610321,543.839722 465.125214,542.509521 466.094635,541.886963 
	C480.544189,532.607117 495.052460,523.418579 509.554352,514.220337 
	C510.109711,513.868103 510.740234,513.634277 511.979370,513.168762 
	C513.127075,513.005798 513.631042,513.019409 514.135071,513.032959 
	C508.896271,517.331055 504.003021,522.165466 498.343872,525.811035 
	C487.849701,532.571228 476.911865,538.643311 466.136719,544.964355 
	C465.765167,545.182312 465.157104,544.997009 464.271667,544.920288 
z"/>
<path fill="#FDF8E5" opacity="1.000000" stroke="none" 
	d="
M81.642365,213.044128 
	C82.047844,213.792160 82.392838,214.799835 82.129112,215.609146 
	C76.224167,233.728958 72.567772,252.330521 69.706909,271.591522 
	C68.938545,271.990814 68.549721,271.987579 68.160889,271.984375 
	C69.110703,264.631378 69.728615,257.216034 71.096344,249.941650 
	C72.719131,241.310760 74.822029,232.757843 77.051300,224.258865 
	C78.046165,220.466003 79.857536,216.887283 81.642365,213.044128 
z"/>
<path fill="#FDF9EA" opacity="1.000000" stroke="none" 
	d="
M605.461853,371.038818 
	C606.481262,362.668152 607.997070,354.285522 609.275146,345.866821 
	C610.436401,338.216766 611.339233,330.527466 612.753845,322.375854 
	C613.720886,321.600189 614.290100,321.304199 614.859375,321.008179 
	C614.245728,327.427155 613.953979,333.897369 612.943115,340.253174 
	C611.413574,349.870300 609.412415,359.413574 607.510864,368.968140 
	C607.359436,369.728882 606.425171,370.333862 605.461853,371.038818 
z"/>
<path fill="#FCF4DE" opacity="1.000000" stroke="none" 
	d="
M81.974564,388.663269 
	C83.789528,391.687927 85.470268,394.932770 86.963028,398.261902 
	C91.296669,407.926819 95.554962,417.625549 99.868256,427.674225 
	C98.322838,426.559265 96.167122,425.363922 95.290070,423.550232 
	C92.587135,417.960754 90.369514,412.136383 87.969414,406.400726 
	C85.823013,401.271332 83.655640,396.150238 81.583435,390.990936 
	C81.352821,390.416809 81.683891,389.617065 81.974564,388.663269 
z"/>
<path fill="#FDF9EA" opacity="1.000000" stroke="none" 
	d="
M613.114868,283.461914 
	C613.466309,281.838409 613.746887,280.679688 614.039673,279.191162 
	C614.707275,280.415619 615.917297,281.965363 615.929932,283.524811 
	C616.027649,295.576691 615.893738,307.630402 615.284546,319.645386 
	C614.185791,319.409943 613.634033,319.212677 613.082275,319.015411 
	C613.069580,307.319153 613.056824,295.622925 613.114868,283.461914 
z"/>
<path fill="#FCF7E4" opacity="1.000000" stroke="none" 
	d="
M573.659424,157.664612 
	C567.972534,149.971634 562.320251,142.252716 556.583801,134.596863 
	C553.811401,130.896774 550.880737,127.315254 548.258789,123.342186 
	C548.942444,123.001564 549.388916,122.998802 549.835449,122.996033 
	C552.988220,126.582962 556.379272,129.990677 559.241150,133.796371 
	C564.266113,140.478378 568.966980,147.404114 573.891357,155.019714 
	C573.872559,156.429337 573.765991,157.046982 573.659424,157.664612 
z"/>
<path fill="#FDF4DC" opacity="1.000000" stroke="none" 
	d="
M102.063293,169.022659 
	C96.122528,182.735718 90.193642,196.453964 84.205170,210.146149 
	C83.911697,210.817169 83.096840,211.260147 82.165634,211.883392 
	C83.866524,206.013565 85.547478,199.902588 88.076027,194.165161 
	C91.804039,185.706055 96.135719,177.512970 100.838638,169.097031 
	C101.665741,168.999176 101.864517,169.010910 102.063293,169.022659 
z"/>
<path fill="#FEF9E9" opacity="1.000000" stroke="none" 
	d="
M125.913254,468.014557 
	C134.615311,477.418182 143.317352,486.821808 151.861969,496.689850 
	C151.450699,497.479156 151.196869,497.804016 150.943054,498.128906 
	C141.953384,488.333313 132.963715,478.537720 124.254944,468.377808 
	C124.994987,468.013824 125.454124,468.014191 125.913254,468.014557 
z"/>
<path fill="#FDFAED" opacity="1.000000" stroke="none" 
	d="
M325.963379,572.107788 
	C336.005157,572.065979 346.046936,572.024170 356.824768,572.291382 
	C359.086975,572.749023 360.613159,572.897644 362.139313,573.046265 
	C361.154083,573.470337 360.166565,574.267944 359.183960,574.261902 
	C346.557068,574.184082 333.930908,573.991516 321.326050,573.256653 
	C322.886139,572.492798 324.424774,572.300354 325.963379,572.107788 
z"/>
<path fill="#FBF6E4" opacity="1.000000" stroke="none" 
	d="
M577.344116,435.944824 
	C578.002502,436.063690 578.364075,436.313721 578.892334,436.849457 
	C572.401794,447.240601 565.763123,457.358521 559.030762,467.413574 
	C558.703613,467.902222 557.552856,467.839478 556.408875,468.087219 
	C559.147034,463.547577 562.325745,458.995819 565.361084,454.350464 
	C569.316040,448.297821 573.157227,442.170898 577.344116,435.944824 
z"/>
<path fill="#FBF3D5" opacity="1.000000" stroke="none" 
	d="
M323.914886,28.826122 
	C318.864166,29.384588 313.789276,29.782034 308.767822,30.535400 
	C298.645966,32.053967 288.553192,33.766178 278.172119,35.173470 
	C283.470734,33.289696 288.947662,30.952799 294.643341,30.130074 
	C303.337921,28.874166 312.183685,28.664612 321.712280,28.007648 
	C322.944519,28.278370 323.429688,28.552248 323.914886,28.826122 
z"/>
<path fill="#FCF4DE" opacity="1.000000" stroke="none" 
	d="
M475.521729,63.112423 
	C474.849731,62.851269 474.177734,62.590107 473.095184,61.942154 
	C472.303528,61.410236 471.922424,61.265110 471.541321,61.119984 
	C467.566803,59.170525 463.592285,57.221069 459.309387,54.928482 
	C459.001038,54.585354 458.997253,54.203506 458.997253,54.203506 
	C464.906891,56.783623 471.014618,58.995308 476.675323,62.038464 
	C483.525879,65.721283 490.029602,70.058258 496.601013,74.241631 
	C497.609375,74.883553 498.175049,76.220848 499.018341,77.584656 
	C491.894073,73.519943 484.696930,69.107117 477.114258,64.163460 
	C476.326385,63.459229 475.924072,63.285824 475.521729,63.112423 
z"/>
<path fill="#FFFFFF" opacity="1.000000" stroke="none" 
	d="
M69.761032,274.071014 
	C69.768326,274.484497 69.775620,274.897949 69.377029,275.733337 
	C68.936211,278.092468 68.901276,280.029633 68.866341,281.966827 
	C68.872620,293.680908 68.878891,305.395020 68.619820,317.821899 
	C68.713486,320.059326 69.072487,321.583893 69.431488,323.108490 
	C69.564346,323.809052 69.697197,324.509583 69.529190,325.571960 
	C68.876541,325.933258 68.524765,325.932770 68.172989,325.932312 
	C67.782066,324.735962 67.057014,323.541290 67.050934,322.342987 
	C66.974159,307.232666 66.990578,292.121796 67.033386,277.011230 
	C67.035477,276.274750 67.501289,275.539551 68.227768,274.424133 
	C69.056602,274.053314 69.408813,274.062164 69.761032,274.071014 
z"/>
<path fill="#FBF6E1" opacity="1.000000" stroke="none" 
	d="
M372.765472,570.846252 
	C372.765472,570.846252 372.933960,570.438782 373.390228,570.251587 
	C384.903015,568.168640 395.959534,566.272888 407.018188,564.670288 
	C407.029022,565.354187 407.037720,565.744995 407.046417,566.135742 
	C396.638855,569.811584 385.945831,571.912170 374.274048,571.675415 
	C373.366119,571.206543 373.065796,571.026367 372.765472,570.846252 
z"/>
<path fill="#FCF4D3" opacity="1.000000" stroke="none" 
	d="
M68.100525,326.394501 
	C68.524765,325.932770 68.876541,325.933258 69.491203,325.929291 
	C71.278961,335.827087 72.819084,345.727081 74.294075,355.636749 
	C74.391556,356.291687 73.992546,357.020508 73.505112,357.764832 
	C71.781120,352.997101 69.897949,348.257111 69.100288,343.341003 
	C68.222427,337.930695 68.342651,332.358398 68.100525,326.394501 
z"/>
<path fill="#FDF8EB" opacity="1.000000" stroke="none" 
	d="
M407.469604,566.081482 
	C407.037720,565.744995 407.029022,565.354187 407.423492,564.555237 
	C408.866241,563.790955 409.905853,563.434875 411.185150,563.203247 
	C412.007629,562.987549 412.590424,562.647522 413.484528,562.326538 
	C414.196686,562.246826 414.597565,562.148132 414.998413,562.049438 
	C422.409119,559.702026 429.819794,557.354553 437.620941,555.364868 
	C438.033051,556.186523 438.054688,556.650330 438.076355,557.114197 
	C438.076324,557.114197 438.018066,557.022827 437.729187,557.028687 
	C436.634674,557.299377 435.828979,557.564087 435.023285,557.828796 
	C425.979767,560.561584 416.936279,563.294373 407.469604,566.081482 
z"/>
<path fill="#FDF5D7" opacity="1.000000" stroke="none" 
	d="
M453.030548,51.687218 
	C446.106689,49.438614 439.024933,46.861000 431.940582,44.290432 
	C427.939453,42.838612 423.934113,41.398384 420.122009,39.536087 
	C420.585632,39.063702 420.857910,39.008167 421.130188,38.952633 
	C428.546661,41.289574 436.042938,43.406918 443.344025,46.061214 
	C446.716431,47.287254 449.707550,49.561928 453.030548,51.687218 
z"/>
<path fill="#FDF5D6" opacity="1.000000" stroke="none" 
	d="
M276.215088,35.148849 
	C276.251526,35.694153 276.002747,36.501953 275.550995,36.638622 
	C264.987488,39.834354 254.402023,42.957481 243.414093,45.878006 
	C243.005417,45.491058 243.003281,45.320091 243.001129,45.149128 
	C248.586563,43.089558 254.098206,40.790367 259.779053,39.040531 
	C265.036987,37.420956 270.476044,36.389275 276.215088,35.148849 
z"/>
<path fill="#FDF5E2" opacity="1.000000" stroke="none" 
	d="
M540.984558,115.187775 
	C533.995789,108.398338 527.007080,101.608902 519.981812,94.481438 
	C526.811890,95.182724 528.751038,102.279686 533.886536,105.568497 
	C536.521912,107.256172 538.226562,110.397186 540.674805,113.362488 
	C540.993347,114.291618 540.988953,114.739700 540.984558,115.187775 
z"/>
<path fill="#FBF5DD" opacity="1.000000" stroke="none" 
	d="
M166.048203,511.388062 
	C167.177673,511.167023 168.758789,510.811523 169.599258,511.442535 
	C176.057770,516.291382 182.372467,521.331787 188.767380,526.634521 
	C185.545624,525.501282 181.962158,524.507080 179.105469,522.485840 
	C174.535675,519.252441 170.448166,515.337402 166.048203,511.388062 
z"/>
<path fill="#FAF4DA" opacity="1.000000" stroke="none" 
	d="
M400.998596,35.007713 
	C391.867493,33.505501 382.736450,32.003288 373.298187,30.047897 
	C372.990997,29.594719 372.997681,29.137238 372.997681,29.137238 
	C381.231964,30.420038 389.464783,31.712584 397.702881,32.970375 
	C398.514526,33.094299 399.358673,33.005276 400.591736,33.393417 
	C400.996704,34.183739 400.997650,34.595722 400.998596,35.007713 
z"/>
<path fill="#FDF8E5" opacity="1.000000" stroke="none" 
	d="
M573.711060,157.991821 
	C573.765991,157.046982 573.872559,156.429337 574.016357,155.346359 
	C577.356567,161.203613 580.618958,167.548035 583.991821,173.833130 
	C584.814087,175.365387 585.999329,176.702850 587.038208,178.494507 
	C587.013916,179.458908 586.969116,180.058670 586.871826,181.110107 
	C582.467224,173.814178 578.115051,166.066605 573.711060,157.991821 
z"/>
<path fill="#FCF7E4" opacity="1.000000" stroke="none" 
	d="
M74.123398,359.679260 
	C74.655090,360.016968 75.444862,360.654144 75.650528,361.443512 
	C77.576660,368.836548 79.402756,376.255646 81.104324,383.892487 
	C79.626564,381.841766 77.955254,379.694092 77.055550,377.261078 
	C75.531586,373.139893 74.330925,368.876068 73.348038,364.591095 
	C73.030838,363.208252 73.824837,361.570496 74.123398,359.679260 
z"/>
<path fill="#FCF3CE" opacity="1.000000" stroke="none" 
	d="
M514.447327,512.908875 
	C513.631042,513.019409 513.127075,513.005798 512.243774,512.973633 
	C518.663391,506.614014 525.462219,500.273071 532.622498,494.191376 
	C532.990234,494.903870 532.996582,495.357147 533.002930,495.810425 
	C526.921875,501.468536 520.840698,507.126678 514.447327,512.908875 
z"/>
<path fill="#FDF7E4" opacity="1.000000" stroke="none" 
	d="
M102.328941,168.819656 
	C101.864517,169.010910 101.665741,168.999176 101.169075,168.966827 
	C102.115005,166.238968 103.082497,163.356766 104.661919,160.861969 
	C107.667145,156.115005 111.022095,151.589432 114.596268,146.923615 
	C113.100533,150.294113 111.293221,153.743073 109.366249,157.123795 
	C107.164597,160.986420 104.856461,164.788361 102.328941,168.819656 
z"/>
<path fill="#F8ECC9" opacity="1.000000" stroke="none" 
	d="
M148.456024,107.062088 
	C142.481476,113.673264 136.177139,120.299889 129.520294,126.915726 
	C135.487259,120.295799 141.806747,113.686668 148.456024,107.062088 
z"/>
<path fill="#FDF8EB" opacity="1.000000" stroke="none" 
	d="
M103.712372,437.935791 
	C106.664154,440.962555 109.464050,444.027008 111.898308,447.358582 
	C113.914650,450.118134 115.499771,453.192810 116.972595,456.544739 
	C116.402962,456.996704 116.136681,457.031799 115.870407,457.066925 
	C111.714348,450.740967 107.558281,444.415009 103.712372,437.935791 
z"/>
<path fill="#FDF5E2" opacity="1.000000" stroke="none" 
	d="
M538.426880,491.042511 
	C537.898315,490.631439 537.454529,489.962128 537.590515,489.809631 
	C541.738770,485.155945 545.944031,480.553040 550.494873,475.935089 
	C546.826904,480.960327 542.804443,485.992767 538.426880,491.042511 
z"/>
<path fill="#FEF6E1" opacity="1.000000" stroke="none" 
	d="
M196.996201,68.929878 
	C190.526062,73.273964 184.055939,77.618050 177.309280,81.898560 
	C178.930115,80.135361 180.678940,78.221771 182.755585,76.780426 
	C187.156464,73.725845 191.728256,70.917511 196.603226,68.208054 
	C196.983032,68.581894 196.989609,68.755882 196.996201,68.929878 
z"/>
<path fill="#FEF8E2" opacity="1.000000" stroke="none" 
	d="
M324.357605,28.872501 
	C323.429688,28.552248 322.944519,28.278370 322.168396,27.977209 
	C322.547333,27.626854 323.217377,27.022200 323.887146,27.022526 
	C335.821991,27.028315 347.756836,27.107517 359.681824,27.652481 
	C359.383942,28.301208 359.174835,28.538088 359.044678,28.844679 
	C347.629883,28.869411 336.215118,28.894146 324.357605,28.872501 
z"/>
<path fill="#FDFAED" opacity="1.000000" stroke="none" 
	d="
M401.355164,35.132648 
	C400.997650,34.595722 400.996704,34.183739 401.001770,33.462814 
	C407.604797,34.856136 414.201813,36.558395 420.964508,38.606644 
	C420.857910,39.008167 420.585632,39.063702 419.912170,39.242382 
	C413.577881,37.996212 407.644836,36.626900 401.355164,35.132648 
z"/>
<path fill="#FCF3D5" opacity="1.000000" stroke="none" 
	d="
M197.356140,68.937805 
	C196.989609,68.755882 196.983032,68.581894 196.966461,68.146996 
	C202.038086,64.926056 207.119736,61.966034 212.582886,58.959316 
	C212.103622,59.966255 211.445419,61.362541 210.345993,62.012527 
	C206.213959,64.455429 201.938065,66.654999 197.356140,68.937805 
z"/>
<path fill="#FEFAF1" opacity="1.000000" stroke="none" 
	d="
M438.459167,557.067505 
	C438.054688,556.650330 438.033051,556.186523 438.008789,555.374390 
	C443.110138,553.012329 448.214081,550.998535 453.713623,549.017578 
	C453.488037,549.803833 453.019135,550.890198 452.220459,551.255371 
	C447.805359,553.274292 443.309906,555.117432 438.459167,557.067505 
z"/>
<path fill="#FEF9E9" opacity="1.000000" stroke="none" 
	d="
M153.139526,497.727753 
	C155.310211,499.840118 157.480896,501.952454 159.854691,504.562988 
	C160.378815,505.015900 160.699829,504.970612 161.020844,504.925354 
	C162.808105,506.754211 164.595367,508.583099 166.159515,510.736176 
	C161.333832,507.270142 156.731232,503.479919 152.273834,499.219788 
	C152.659195,498.409210 152.899368,498.068481 153.139526,497.727753 
z"/>
<path fill="#FDF4D8" opacity="1.000000" stroke="none" 
	d="
M519.103760,93.635956 
	C514.794800,90.545235 510.396851,87.077728 506.012329,83.263779 
	C507.995667,83.732124 510.328156,84.129112 511.855072,85.454300 
	C514.504150,87.753387 516.654907,90.626678 519.103760,93.635956 
z"/>
<path fill="#FDF4D8" opacity="1.000000" stroke="none" 
	d="
M325.645081,571.858032 
	C324.424774,572.300354 322.886139,572.492798 321.140442,572.897705 
	C316.876587,572.816895 312.819885,572.523560 308.384583,572.030457 
	C307.997711,571.508972 307.984009,571.187561 307.954163,570.628723 
	C313.737885,570.796814 319.532318,571.202454 325.645081,571.858032 
z"/>
<path fill="#FBF3D5" opacity="1.000000" stroke="none" 
	d="
M115.926239,457.420959 
	C116.136681,457.031799 116.402962,456.996704 117.069435,456.896484 
	C120.287064,460.327209 123.104492,463.823090 125.917587,467.666748 
	C125.454124,468.014191 124.994987,468.013824 124.191124,468.024475 
	C121.224953,464.615295 118.603508,461.195129 115.926239,457.420959 
z"/>
<path fill="#FCF4DE" opacity="1.000000" stroke="none" 
	d="
M229.013855,52.028698 
	C224.253723,54.395199 219.493607,56.761703 214.356674,58.827637 
	C213.970230,58.313950 213.960587,58.100830 213.950958,57.887711 
	C218.701126,55.591888 223.451309,53.296066 228.595642,51.225822 
	C228.997818,51.643833 229.005829,51.836266 229.013855,52.028698 
z"/>
<path fill="#FCF3D5" opacity="1.000000" stroke="none" 
	d="
M162.577026,92.963417 
	C160.208115,95.963615 157.483063,99.017685 154.392563,101.796753 
	C153.985611,100.966934 153.944092,100.412117 153.902588,99.857292 
	C156.675339,97.577286 159.448105,95.297287 162.577026,92.963417 
z"/>
<path fill="#FDF7E4" opacity="1.000000" stroke="none" 
	d="
M229.393021,52.032272 
	C229.005829,51.836266 228.997818,51.643833 228.972214,51.163048 
	C232.689957,49.240650 236.425293,47.606609 240.553574,45.949371 
	C237.221725,47.962727 233.496964,49.999283 229.393021,52.032272 
z"/>
<path fill="#FDF4D8" opacity="1.000000" stroke="none" 
	d="
M362.544617,573.031616 
	C360.613159,572.897644 359.086975,572.749023 357.293304,572.334900 
	C360.061584,571.715149 363.097412,571.360840 366.570496,571.352661 
	C367.003113,572.083435 366.998444,572.468140 366.993774,572.852844 
	C365.645813,572.907532 364.297882,572.962219 362.544617,573.031616 
z"/>
<path fill="#FBF3D5" opacity="1.000000" stroke="none" 
	d="
M359.350220,29.113239 
	C359.174835,28.538088 359.383942,28.301208 359.894775,28.042242 
	C364.110077,28.300829 368.102692,28.651218 372.546478,29.069424 
	C372.997681,29.137238 372.990997,29.594719 372.984772,29.823473 
	C368.537598,29.828751 364.096680,29.605276 359.350220,29.113239 
z"/>
<path fill="#FEF9E9" opacity="1.000000" stroke="none" 
	d="
M549.837280,122.649475 
	C549.388916,122.998802 548.942444,123.001564 548.159302,123.011017 
	C546.970642,122.141495 546.118530,121.265297 545.141235,119.810753 
	C544.981018,118.851349 544.945984,118.470284 544.955017,118.045227 
	C544.999084,118.001228 545.087830,117.913795 545.087830,117.913788 
	C546.671570,119.376831 548.255371,120.839874 549.837280,122.649475 
z"/>
<path fill="#FDFAED" opacity="1.000000" stroke="none" 
	d="
M367.403259,572.921387 
	C366.998444,572.468140 367.003113,572.083435 367.013672,571.410889 
	C368.663727,571.013000 370.307922,570.903015 372.358795,570.819641 
	C373.065796,571.026367 373.366119,571.206543 373.824127,571.597046 
	C371.925446,572.201599 369.869080,572.595764 367.403259,572.921387 
z"/>
<path fill="#FDF4D8" opacity="1.000000" stroke="none" 
	d="
M505.971802,82.641335 
	C504.042114,81.592506 502.006958,80.221962 499.933411,78.503632 
	C501.885468,79.543770 503.875916,80.931702 505.971802,82.641335 
z"/>
<path fill="#F8ECC9" opacity="1.000000" stroke="none" 
	d="
M153.580902,99.996040 
	C153.944092,100.412117 153.985611,100.966934 154.076080,101.939171 
	C153.268127,103.188004 152.411194,104.019417 151.237152,104.884399 
	C151.699753,103.323578 152.479492,101.729179 153.580902,99.996040 
z"/>
<path fill="#FDF5E2" opacity="1.000000" stroke="none" 
	d="
M533.330872,495.813904 
	C532.996582,495.357147 532.990234,494.903870 532.957886,494.108093 
	C533.088684,493.623016 533.233887,493.469452 533.794678,493.082031 
	C534.483337,492.519684 534.744812,492.180176 535.006348,491.840698 
	C535.844971,491.413971 536.683533,490.987213 537.786255,490.819366 
	C536.586548,492.657990 535.122681,494.237671 533.330872,495.813904 
z"/>
<path fill="#FDF8E7" opacity="1.000000" stroke="none" 
	d="
M612.865234,319.255798 
	C613.634033,319.212677 614.185791,319.409943 614.897949,319.862671 
	C615.058289,320.118164 615.011414,320.574921 614.935425,320.791565 
	C614.290100,321.304199 613.720886,321.600189 612.925781,321.951385 
	C612.682800,321.169769 612.665527,320.333008 612.865234,319.255798 
z"/>
<path fill="#FCF4DE" opacity="1.000000" stroke="none" 
	d="
M100.141434,429.501404 
	C100.849976,430.320740 101.518532,431.449615 101.945511,432.732422 
	C101.169777,431.861237 100.635612,430.836121 100.141434,429.501404 
z"/>
<path fill="#FDF5D7" opacity="1.000000" stroke="none" 
	d="
M458.668152,54.045570 
	C458.997253,54.203506 459.001038,54.585354 458.999756,54.776093 
	C457.762085,54.486454 456.525726,54.006073 455.160583,53.210754 
	C456.134216,53.226421 457.236664,53.557026 458.668152,54.045570 
z"/>
<path fill="#FDF8EB" opacity="1.000000" stroke="none" 
	d="
M190.214874,528.494202 
	C191.036514,528.719116 191.997025,529.220276 192.844482,530.004517 
	C191.938858,529.781860 191.146301,529.276184 190.214874,528.494202 
z"/>
<path fill="#FEF9E9" opacity="1.000000" stroke="none" 
	d="
M543.784607,118.020630 
	C543.379700,117.175522 542.974731,116.330414 542.822205,115.216217 
	C543.723694,115.718208 544.372803,116.489296 545.054871,117.587090 
	C545.087830,117.913795 544.999084,118.001228 544.674194,118.018013 
	C544.161072,118.030067 543.972839,118.025345 543.784607,118.020630 
z"/>
<path fill="#FCF4D3" opacity="1.000000" stroke="none" 
	d="
M69.859451,273.731415 
	C69.408813,274.062164 69.056602,274.053314 68.439156,274.050171 
	C68.125710,273.594299 68.077492,273.132690 68.095078,272.327759 
	C68.549721,271.987579 68.938545,271.990814 69.617989,271.989929 
	C69.925026,272.454468 69.941452,272.923157 69.859451,273.731415 
z"/>
<path fill="#F8ECC9" opacity="1.000000" stroke="none" 
	d="
M150.597290,104.988708 
	C150.497986,105.529823 150.082428,106.134781 149.367767,106.752365 
	C149.472794,106.194183 149.876907,105.623367 150.597290,104.988708 
z"/>
<path fill="#FDF8EB" opacity="1.000000" stroke="none" 
	d="
M153.047470,497.534241 
	C152.899368,498.068481 152.659195,498.409210 152.146027,498.905884 
	C151.517792,499.055908 151.246887,498.901733 151.001678,498.364136 
	C151.196869,497.804016 151.450699,497.479156 151.983185,497.007202 
	C152.549759,496.938538 152.780930,497.098755 153.047470,497.534241 
z"/>
<path fill="#FEF9E9" opacity="1.000000" stroke="none" 
	d="
M541.346924,115.319565 
	C540.988953,114.739700 540.993347,114.291618 540.997681,113.508499 
	C541.630554,113.564323 542.263550,113.955193 542.975525,114.636353 
	C542.606140,115.101547 542.157654,115.276451 541.346924,115.319565 
z"/>
<path fill="#FEFAF1" opacity="1.000000" stroke="none" 
	d="
M435.370239,557.914307 
	C435.828979,557.564087 436.634674,557.299377 437.775574,557.056763 
	C437.312927,557.385864 436.515076,557.692810 435.370239,557.914307 
z"/>
<path fill="#FDF7E4" opacity="1.000000" stroke="none" 
	d="
M242.685211,45.070160 
	C243.003281,45.320091 243.005417,45.491058 243.016388,45.919418 
	C242.525101,46.262672 242.025024,46.348534 241.235703,46.179882 
	C241.420746,45.613979 241.895004,45.302586 242.685211,45.070160 
z"/>
<path fill="#FDF5D7" opacity="1.000000" stroke="none" 
	d="
M455.006226,52.821407 
	C454.962097,52.759796 454.757721,52.585369 454.340759,52.353794 
	C454.563141,52.140617 454.802429,52.277931 455.006226,52.821407 
z"/>
<path fill="#FCF3D5" opacity="1.000000" stroke="none" 
	d="
M213.704071,57.979576 
	C213.960587,58.100830 213.970230,58.313950 213.978546,58.848679 
	C213.793365,59.170956 213.609497,59.171619 213.174561,59.058140 
	C213.101379,58.653145 213.279282,58.362289 213.704071,57.979576 
z"/>
<path fill="#FCFBF9" opacity="1.000000" stroke="none" 
	d="
M263.834412,457.961761 
	C247.509171,445.653625 241.049957,427.255096 234.462845,409.201141 
	C222.529800,376.494965 216.240128,342.665070 214.861694,307.789246 
	C214.306244,293.735413 220.525620,284.814911 231.531784,277.843719 
	C243.789505,270.079803 257.324707,265.553619 271.282715,262.162415 
	C278.978516,260.292664 279.176880,260.332153 278.867035,252.338699 
	C278.415741,240.694931 275.402100,229.729736 270.176361,219.308975 
	C263.447998,205.891815 257.239899,192.277832 255.533920,177.097107 
	C253.410889,158.205200 259.095306,141.615723 270.393402,126.720604 
	C271.092590,125.798805 272.837128,125.669876 274.095276,125.172050 
	C274.336243,126.386002 274.973511,127.678345 274.751526,128.800720 
	C273.623718,134.502167 272.086487,140.125168 271.034485,145.838577 
	C267.396088,165.598557 273.961365,183.199524 282.564178,200.446411 
	C286.486969,208.310898 289.996918,216.413559 293.168976,224.611389 
	C296.460754,233.118576 296.810760,242.111771 296.087524,251.153397 
	C295.946136,252.921036 296.067169,254.709641 296.067169,257.182770 
	C301.438995,256.723846 306.332886,256.268829 311.233063,255.895813 
	C318.532501,255.340149 325.830536,254.712296 333.141235,254.385529 
	C335.966522,254.259247 336.666382,253.102737 336.987610,250.483963 
	C339.412262,230.718094 335.559082,212.185257 326.927002,194.364975 
	C319.608337,179.256134 312.337006,164.122375 308.601685,147.546371 
	C302.131378,118.833549 308.602905,93.194099 326.332031,70.126297 
	C327.446289,68.676537 329.679504,68.086792 331.392151,67.096924 
	C331.645599,68.992012 332.357574,70.957672 332.078552,72.770813 
	C330.187439,85.059326 327.117889,97.249802 326.279175,109.597618 
	C324.989990,128.578522 332.308777,145.714188 340.236450,162.546768 
	C346.109039,175.015900 352.347076,187.411880 356.914154,200.371933 
	C362.670898,216.707870 362.663940,233.681870 357.954559,250.455399 
	C357.057312,253.651276 357.438263,254.904663 361.020569,255.285202 
	C372.248169,256.477844 383.454102,257.902649 394.639465,259.447327 
	C398.147705,259.931793 398.050049,257.840576 398.155243,255.588974 
	C398.751709,242.824341 395.763702,230.831039 390.185333,219.447113 
	C383.958282,206.739319 377.915985,193.997025 375.492157,179.864136 
	C372.076996,159.950790 377.628052,142.391174 389.252319,126.391762 
	C390.159729,125.142860 391.541199,124.238403 392.702332,123.173851 
	C393.201538,123.348427 393.700775,123.523003 394.200012,123.697578 
	C393.920654,125.970314 393.868134,128.298798 393.325287,130.506760 
	C389.716278,145.185806 387.053436,160.090744 392.094696,174.751373 
	C396.026703,186.186142 401.303955,197.202133 406.561249,208.126114 
	C412.884216,221.264343 416.903656,234.783951 415.769348,249.487137 
	C415.528717,252.606125 414.769806,255.693527 414.132996,258.771332 
	C413.404572,262.291992 414.382477,263.986572 418.228729,265.065826 
	C432.098389,268.957611 445.273926,274.416046 456.129150,284.356506 
	C461.276520,289.070068 464.655334,294.582611 464.163635,301.804321 
	C463.576691,310.424774 462.941132,319.046631 462.053162,327.639648 
	C461.671906,331.329315 462.320862,333.167358 466.432098,334.320526 
	C478.144745,337.605774 488.144775,343.604706 493.872253,355.003601 
	C503.389130,373.944397 497.151031,397.465271 479.461334,409.289398 
	C469.424652,415.998047 458.104004,419.146484 446.355499,421.134888 
	C444.150879,421.507965 442.040283,422.436554 439.516174,423.692505 
	C438.532593,425.249878 437.667694,426.146942 437.343994,427.208923 
	C433.342773,440.335236 425.447174,450.430450 413.507446,457.782196 
	C408.136383,460.106689 403.234955,462.689423 398.061371,464.490143 
	C391.821564,466.661957 385.350800,468.170135 378.561829,469.932526 
	C369.470764,471.068970 360.797882,472.238434 351.737854,473.279816 
	C343.229462,473.195465 335.108276,473.239197 326.568512,473.154297 
	C324.114441,472.964996 322.078949,472.904297 319.787933,472.594910 
	C317.967499,472.526733 316.402557,472.707245 314.677460,472.883118 
	C314.517273,472.878479 314.199585,472.921112 314.036011,472.625336 
	C312.188782,472.031769 310.505127,471.733978 308.622253,471.365479 
	C308.423004,471.294769 308.010895,471.389587 307.686646,471.244324 
	C296.811432,468.214172 286.230377,465.433044 275.724579,462.392059 
	C271.673187,461.219269 267.792755,459.455994 263.834412,457.961761 
M388.892517,131.686722 
	C378.325775,147.134064 375.046295,163.675674 380.340240,181.999146 
	C383.576843,180.960648 385.765228,180.258484 387.985260,179.546158 
	C387.985260,174.652435 388.723114,169.867538 387.840881,165.402756 
	C385.588226,154.002518 388.626740,143.122772 390.639282,131.878128 
	C390.680084,131.341995 390.720886,130.805862 390.761688,130.269730 
	C390.321014,130.584839 389.880310,130.899948 388.892517,131.686722 
M322.407318,294.066284 
	C327.526733,284.200623 331.881409,274.058533 334.178436,262.916931 
	C333.037781,262.706573 332.391693,262.444305 331.770660,262.494080 
	C320.157593,263.425171 308.530182,264.237732 296.955566,265.523163 
	C295.241211,265.713562 293.033661,267.871704 292.320862,269.632294 
	C287.668762,281.122528 281.039825,291.135040 271.402649,299.003052 
	C270.292389,299.909485 268.529541,300.016571 267.069244,300.494263 
	C267.131592,298.982422 266.802643,297.315857 267.328125,295.987213 
	C269.038696,291.662354 271.273804,287.540619 272.904816,283.189880 
	C274.546936,278.809540 275.708099,274.248840 277.079987,269.767181 
	C276.572968,269.217072 276.065948,268.666962 275.558929,268.116852 
	C263.242157,272.974670 250.821777,277.592041 238.669159,282.830566 
	C234.811737,284.493378 231.379700,287.504150 228.255859,290.434204 
	C221.245163,297.009918 221.142685,304.773682 228.089798,311.341248 
	C231.438385,314.506866 235.211975,317.674683 239.386871,319.426544 
	C250.237549,323.979736 261.147522,328.848724 272.513550,331.634613 
	C313.362305,341.646790 354.611359,342.013062 395.887177,334.218964 
	C413.270355,330.936554 430.331390,326.357941 445.332794,316.408203 
	C460.186340,306.556549 460.555267,294.979187 445.322235,285.855530 
	C435.602600,280.034027 424.510010,276.496613 414.004913,272.000824 
	C411.491638,270.925262 410.136810,272.155090 409.002563,274.511322 
	C404.621368,283.612885 398.820526,291.693054 390.777771,297.940979 
	C389.697998,298.779785 387.934662,298.738678 386.487854,299.105042 
	C386.580353,297.590515 386.295288,295.923187 386.834900,294.589600 
	C388.580078,290.276733 390.873138,286.177490 392.491272,281.823547 
	C394.129089,277.416718 395.214630,272.804657 396.871918,267.158813 
	C383.455841,265.734222 371.232300,264.537323 359.039673,263.081573 
	C355.251587,262.629272 353.417114,264.033264 351.844635,267.408173 
	C346.068878,279.804382 337.900208,290.450439 327.107086,298.919647 
	C325.826263,299.924713 323.658203,299.799072 321.901398,300.197540 
	C321.956024,298.384613 322.010651,296.571686 322.407318,294.066284 
M470.131775,385.539551 
	C478.509491,375.410461 473.697906,360.885345 460.992554,357.611053 
	C458.243195,356.902496 457.474274,357.863770 457.019409,360.322205 
	C455.994812,365.859650 454.807739,371.369568 453.569855,376.864380 
	C452.177582,383.044342 450.656769,389.195343 448.998718,396.171783 
	C457.191193,393.861603 464.190735,391.596619 470.131775,385.539551 
M259.991333,157.237015 
	C261.045044,157.804001 262.383514,159.077026 263.093170,158.790848 
	C264.565216,158.197159 266.562012,156.959702 266.839600,155.664612 
	C268.650116,147.218262 270.058014,138.685623 271.597595,130.181183 
	C269.658051,131.851196 268.644104,133.881836 267.495148,135.832993 
	C263.736603,142.215805 259.913788,148.564148 259.991333,157.237015 
z"/>
<path fill="#EEBD45" opacity="1.000000" stroke="none" 
	d="
M414.998047,561.647339 
	C414.597565,562.148132 414.196686,562.246826 413.336792,562.069580 
	C412.233643,562.222046 411.589569,562.650452 410.945496,563.078857 
	C409.905853,563.434875 408.866241,563.790955 407.421356,564.262085 
	C395.959534,566.272888 384.903015,568.168640 373.432617,570.035217 
	C370.368195,566.569336 367.717651,563.132629 365.424011,559.396484 
	C369.505951,560.526062 372.466461,560.571106 375.181213,556.610718 
	C377.324738,553.483704 380.892853,551.363770 383.662811,548.629028 
	C388.905853,543.452637 394.030762,538.156616 399.203339,532.908813 
	C401.470734,530.608521 403.762390,528.331116 405.987671,525.990662 
	C406.988586,524.937988 407.632874,523.220947 408.820862,522.730774 
	C412.796143,521.090515 415.225067,518.268005 416.913513,514.425964 
	C417.446198,513.213867 418.978638,512.438538 420.060181,511.470825 
	C425.575958,506.535522 431.104980,501.614868 436.591125,496.646851 
	C437.054626,496.227112 437.124084,495.387634 437.568085,494.928253 
	C439.372833,493.061127 441.261414,491.275391 443.101074,489.441589 
	C444.588745,487.958649 446.074982,486.472961 447.519501,484.948334 
	C452.604553,479.581421 457.665131,474.191223 462.759888,468.833527 
	C463.083313,468.493408 463.613556,468.344849 464.055786,468.123566 
	C470.741882,464.778015 472.137115,462.143616 471.003448,454.996460 
	C471.488800,455.096680 472.170410,455.024994 472.430786,455.322266 
	C478.921722,462.732758 485.497009,470.076355 491.752014,477.682831 
	C493.912964,480.310608 492.776581,481.939545 489.740265,484.206360 
	C483.467255,488.889709 478.093567,494.791901 472.436951,500.282410 
	C467.251099,505.316040 462.175110,510.463043 457.058929,515.568298 
	C451.563690,521.051819 446.079529,526.546448 440.587860,532.033508 
	C435.358582,537.258423 430.065186,542.421265 424.931396,547.738403 
	C423.379578,549.345581 422.303009,551.404175 420.935577,553.200195 
	C420.273682,554.069580 419.340515,554.737427 418.709534,555.624146 
	C417.408508,557.452515 416.227844,559.366516 414.998047,561.647339 
z"/>
<path fill="#E7B542" opacity="1.000000" stroke="none" 
	d="
M470.700867,454.842072 
	C472.137115,462.143616 470.741882,464.778015 464.055786,468.123566 
	C463.613556,468.344849 463.083313,468.493408 462.759888,468.833527 
	C457.665131,474.191223 452.604553,479.581421 447.519501,484.948334 
	C446.074982,486.472961 444.588745,487.958649 443.101074,489.441589 
	C441.261414,491.275391 439.372833,493.061127 437.568085,494.928253 
	C437.124084,495.387634 437.054626,496.227112 436.591125,496.646851 
	C431.104980,501.614868 425.575958,506.535522 420.060181,511.470825 
	C418.978638,512.438538 417.446198,513.213867 416.913513,514.425964 
	C415.225067,518.268005 412.796143,521.090515 408.820862,522.730774 
	C407.632874,523.220947 406.988586,524.937988 405.987671,525.990662 
	C403.762390,528.331116 401.470734,530.608521 399.203339,532.908813 
	C394.030762,538.156616 388.905853,543.452637 383.662811,548.629028 
	C380.892853,551.363770 377.324738,553.483704 375.181213,556.610718 
	C372.466461,560.571106 369.505951,560.526062 365.387390,559.051025 
	C360.352203,554.568665 355.710510,550.132446 351.436462,545.348877 
	C356.676270,544.982117 360.269104,543.084778 362.818390,538.673584 
	C364.162720,536.347290 366.642578,534.677795 368.607178,532.709290 
	C370.318451,530.994507 372.008484,529.258057 373.739899,527.563965 
	C375.842072,525.507141 377.979675,523.486511 380.098267,521.446472 
	C381.499207,520.097473 382.924377,518.771851 384.283569,517.381958 
	C386.189880,515.432678 387.989685,513.376526 389.942719,511.476715 
	C391.118195,510.333313 392.654816,509.544678 393.759338,508.347687 
	C398.928894,502.745361 403.969452,497.023926 409.148438,491.430542 
	C410.019165,490.490143 411.393097,490.035126 412.445160,489.237946 
	C413.616852,488.350159 414.795593,487.427368 415.782135,486.347046 
	C420.702728,480.958923 425.538879,475.493591 430.468628,470.113922 
	C431.115540,469.407990 432.242889,469.158447 432.951508,468.489624 
	C434.595734,466.937714 436.110870,465.249725 437.695038,463.633209 
	C439.619110,461.669800 441.418213,459.552399 443.521423,457.802002 
	C449.317413,452.978333 453.760742,447.267639 456.009186,439.986572 
	C456.748322,440.291565 457.706787,440.397705 458.192108,440.932861 
	C462.309662,445.473541 466.341064,450.092316 470.700867,454.842072 
z"/>
<path fill="#E0AD40" opacity="1.000000" stroke="none" 
	d="
M455.965363,439.633820 
	C453.760742,447.267639 449.317413,452.978333 443.521423,457.802002 
	C441.418213,459.552399 439.619110,461.669800 437.695038,463.633209 
	C436.110870,465.249725 434.595734,466.937714 432.951508,468.489624 
	C432.242889,469.158447 431.115540,469.407990 430.468628,470.113922 
	C425.538879,475.493591 420.702728,480.958923 415.782135,486.347046 
	C414.795593,487.427368 413.616852,488.350159 412.445160,489.237946 
	C411.393097,490.035126 410.019165,490.490143 409.148438,491.430542 
	C403.969452,497.023926 398.928894,502.745361 393.759338,508.347687 
	C392.654816,509.544678 391.118195,510.333313 389.942719,511.476715 
	C387.989685,513.376526 386.189880,515.432678 384.283569,517.381958 
	C382.924377,518.771851 381.499207,520.097473 380.098267,521.446472 
	C377.979675,523.486511 375.842072,525.507141 373.739899,527.563965 
	C372.008484,529.258057 370.318451,530.994507 368.607178,532.709290 
	C366.642578,534.677795 364.162720,536.347290 362.818390,538.673584 
	C360.269104,543.084778 356.676270,544.982117 351.396667,545.004150 
	C347.682495,541.903748 344.375702,538.800537 341.077911,535.035583 
	C342.432465,534.286316 343.778015,534.198853 346.198792,534.041565 
	C347.593048,531.686401 349.111359,528.112915 351.531219,525.320801 
	C353.903015,522.584106 357.256989,520.717224 360.039154,518.306213 
	C360.863678,517.591614 361.035858,516.161804 361.807190,515.342224 
	C366.799072,510.038116 371.768982,504.705841 376.950684,499.590057 
	C382.356995,494.252563 387.990265,489.144775 393.531128,483.943817 
	C395.710968,481.897675 398.021881,479.977081 400.064880,477.803589 
	C401.827454,475.928497 404.097260,473.981689 404.684540,471.692474 
	C405.382172,468.973206 405.876678,467.179718 408.984528,466.634857 
	C411.147980,466.255554 413.168427,465.060822 416.236389,463.838501 
	C415.499420,461.935791 414.677948,459.814880 413.856506,457.693970 
	C425.447174,450.430450 433.342773,440.335236 437.343994,427.208923 
	C437.667694,426.146942 438.532593,425.249878 439.411499,424.063812 
	C441.353577,425.302948 443.099060,426.682922 444.692810,428.220215 
	C448.473999,431.867493 452.183228,435.589355 455.965363,439.633820 
z"/>
<path fill="#DCA63E" opacity="1.000000" stroke="none" 
	d="
M413.507446,457.782196 
	C414.677948,459.814880 415.499420,461.935791 416.236389,463.838501 
	C413.168427,465.060822 411.147980,466.255554 408.984528,466.634857 
	C405.876678,467.179718 405.382172,468.973206 404.684540,471.692474 
	C404.097260,473.981689 401.827454,475.928497 400.064880,477.803589 
	C398.021881,479.977081 395.710968,481.897675 393.531128,483.943817 
	C387.990265,489.144775 382.356995,494.252563 376.950684,499.590057 
	C371.768982,504.705841 366.799072,510.038116 361.807190,515.342224 
	C361.035858,516.161804 360.863678,517.591614 360.039154,518.306213 
	C357.256989,520.717224 353.903015,522.584106 351.531219,525.320801 
	C349.111359,528.112915 347.593048,531.686401 346.198792,534.041565 
	C343.778015,534.198853 342.432465,534.286316 341.042236,534.691772 
	C337.004059,530.919434 333.010529,526.829102 329.357300,522.372070 
	C333.789490,521.572266 336.761322,519.595398 338.742432,515.911438 
	C339.668854,514.188721 340.967010,512.598999 342.350189,511.199615 
	C350.669342,502.782684 359.174347,494.546234 367.368347,486.010529 
	C370.174438,483.087402 372.263184,479.475677 374.679688,476.178589 
	C374.382019,475.889648 374.084381,475.600708 373.786713,475.311768 
	C376.134674,475.062225 378.482666,474.812683 381.498566,474.492126 
	C380.371368,472.466248 379.675690,471.215942 378.980011,469.965576 
	C385.350800,468.170135 391.821564,466.661957 398.061371,464.490143 
	C403.234955,462.689423 408.136383,460.106689 413.507446,457.782196 
z"/>
<path fill="#D49E3D" opacity="1.000000" stroke="none" 
	d="
M378.561829,469.932556 
	C379.675690,471.215942 380.371368,472.466248 381.498566,474.492126 
	C378.482666,474.812683 376.134674,475.062225 373.786713,475.311768 
	C374.084381,475.600708 374.382019,475.889648 374.679688,476.178589 
	C372.263184,479.475677 370.174438,483.087402 367.368347,486.010529 
	C359.174347,494.546234 350.669342,502.782684 342.350189,511.199615 
	C340.967010,512.598999 339.668854,514.188721 338.742432,515.911438 
	C336.761322,519.595398 333.789490,521.572266 329.306885,522.030518 
	C325.622070,518.969971 322.327972,515.884399 319.132812,512.131226 
	C320.681610,509.278076 321.844391,506.816345 323.633057,504.956543 
	C330.039276,498.295685 336.826904,491.996704 343.127045,485.240784 
	C346.489471,481.635101 349.148529,477.373474 352.125031,473.407898 
	C360.797882,472.238434 369.470764,471.068970 378.561829,469.932556 
z"/>
<path fill="#CD9338" opacity="1.000000" stroke="none" 
	d="
M351.737854,473.279816 
	C349.148529,477.373474 346.489471,481.635101 343.127045,485.240784 
	C336.826904,491.996704 330.039276,498.295685 323.633057,504.956543 
	C321.844391,506.816345 320.681610,509.278076 319.088348,511.793396 
	C313.710907,507.289307 308.476837,502.455505 303.455292,497.311218 
	C304.817139,496.459320 306.184296,496.156067 307.079803,495.337097 
	C312.173279,490.679077 317.326141,486.062622 322.093689,481.082428 
	C324.172363,478.911041 325.382507,475.908173 326.987091,473.282898 
	C335.108276,473.239197 343.229462,473.195465 351.737854,473.279816 
z"/>
<path fill="#BE8237" opacity="1.000000" stroke="none" 
	d="
M263.917358,458.305603 
	C267.792755,459.455994 271.673187,461.219269 275.724579,462.392059 
	C286.230377,465.433044 296.811432,468.214172 307.741180,471.577454 
	C308.413696,472.371033 308.707458,472.686127 309.000610,473.000610 
	C309.000000,473.000000 308.998779,472.998779 308.986267,473.389282 
	C308.603027,474.450165 308.201019,475.719116 307.866241,475.701660 
	C302.280396,475.409851 300.131317,479.710327 297.390411,483.281128 
	C296.314636,484.682617 295.037659,485.929626 293.852325,487.247009 
	C287.602509,481.659729 281.235596,476.196320 275.144836,470.440704 
	C271.220337,466.732178 267.701172,462.594666 263.917358,458.305603 
z"/>
<path fill="#C68A36" opacity="1.000000" stroke="none" 
	d="
M293.913086,487.571869 
	C295.037659,485.929626 296.314636,484.682617 297.390411,483.281128 
	C300.131317,479.710327 302.280396,475.409851 307.866241,475.701660 
	C308.201019,475.719116 308.603027,474.450165 309.419250,473.389160 
	C311.309692,472.972687 312.754639,472.946899 314.199585,472.921112 
	C314.199585,472.921112 314.517273,472.878479 315.014893,473.039856 
	C317.022797,473.082031 318.533142,472.962830 320.043457,472.843597 
	C322.078949,472.904297 324.114441,472.964996 326.568512,473.154297 
	C325.382507,475.908173 324.172363,478.911041 322.093689,481.082428 
	C317.326141,486.062622 312.173279,490.679077 307.079803,495.337097 
	C306.184296,496.156067 304.817139,496.459320 303.294434,497.018005 
	C299.938629,493.989075 296.956238,490.942902 293.913086,487.571869 
z"/>
<path fill="#FCF4D3" opacity="1.000000" stroke="none" 
	d="
M69.139084,281.694458 
	C68.901276,280.029633 68.936211,278.092468 69.293167,276.033081 
	C69.547409,277.747955 69.479622,279.584991 69.139084,281.694458 
z"/>
<path fill="#FCF4D3" opacity="1.000000" stroke="none" 
	d="
M69.566315,322.736328 
	C69.072487,321.583893 68.713486,320.059326 68.585243,318.292236 
	C69.111053,319.487885 69.406097,320.926025 69.566315,322.736328 
z"/>
<path fill="#FDF4D8" opacity="1.000000" stroke="none" 
	d="
M305.809143,569.989441 
	C305.370361,570.273376 304.809601,570.343811 304.119629,570.192871 
	C304.556000,569.906311 305.121613,569.841125 305.809143,569.989441 
z"/>
<path fill="#FDF5E2" opacity="1.000000" stroke="none" 
	d="
M543.834290,118.314957 
	C543.972839,118.025345 544.161072,118.030067 544.630127,118.062012 
	C544.945984,118.470284 544.981018,118.851349 545.040527,119.517136 
	C544.671326,119.404343 544.277649,119.006813 543.834290,118.314957 
z"/>
<path fill="#FCF3CE" opacity="1.000000" stroke="none" 
	d="
M534.769104,491.852142 
	C534.744812,492.180176 534.483337,492.519684 533.911194,492.972473 
	C533.911011,492.678406 534.221436,492.270996 534.769104,491.852142 
z"/>
<path fill="#FDF8EB" opacity="1.000000" stroke="none" 
	d="
M160.764938,504.778717 
	C160.699829,504.970612 160.378815,505.015900 159.988617,504.837677 
	C160.115967,504.620148 160.312500,504.626129 160.764938,504.778717 
z"/>
<path fill="#FCF4DC" opacity="1.000000" stroke="none" 
	d="
M475.725769,63.369049 
	C475.924072,63.285824 476.326385,63.459229 476.909058,63.917229 
	C476.702881,64.009773 476.316376,63.817726 475.725769,63.369049 
z"/>
<path fill="#FCF4DC" opacity="1.000000" stroke="none" 
	d="
M471.730835,61.360359 
	C471.922424,61.265110 472.303528,61.410236 472.856262,61.814842 
	C472.658691,61.916458 472.289490,61.758598 471.730835,61.360359 
z"/>
<path fill="#F4C848" opacity="1.000000" stroke="none" 
	d="
M411.185181,563.203247 
	C411.589569,562.650452 412.233643,562.222046 413.025482,562.050537 
	C412.590424,562.647522 412.007629,562.987549 411.185181,563.203247 
z"/>
<path fill="#7C5835" opacity="1.000000" stroke="none" 
	d="
M322.236298,294.412537 
	C322.010651,296.571686 321.956024,298.384613 321.901398,300.197540 
	C323.658203,299.799072 325.826263,299.924713 327.107086,298.919647 
	C337.900208,290.450439 346.068878,279.804382 351.844635,267.408173 
	C353.417114,264.033264 355.251587,262.629272 359.039673,263.081573 
	C371.232300,264.537323 383.455841,265.734222 396.871918,267.158813 
	C395.214630,272.804657 394.129089,277.416718 392.491272,281.823547 
	C390.873138,286.177490 388.580078,290.276733 386.834900,294.589600 
	C386.295288,295.923187 386.580353,297.590515 386.487854,299.105042 
	C387.934662,298.738678 389.697998,298.779785 390.777771,297.940979 
	C398.820526,291.693054 404.621368,283.612885 409.002563,274.511322 
	C410.136810,272.155090 411.491638,270.925262 414.004913,272.000824 
	C424.510010,276.496613 435.602600,280.034027 445.322235,285.855530 
	C460.555267,294.979187 460.186340,306.556549 445.332794,316.408203 
	C430.331390,326.357941 413.270355,330.936554 395.887177,334.218964 
	C354.611359,342.013062 313.362305,341.646790 272.513550,331.634613 
	C261.147522,328.848724 250.237549,323.979736 239.386871,319.426544 
	C235.211975,317.674683 231.438385,314.506866 228.089798,311.341248 
	C221.142685,304.773682 221.245163,297.009918 228.255859,290.434204 
	C231.379700,287.504150 234.811737,284.493378 238.669159,282.830566 
	C250.821777,277.592041 263.242157,272.974670 275.558929,268.116852 
	C276.065948,268.666962 276.572968,269.217072 277.079987,269.767181 
	C275.708099,274.248840 274.546936,278.809540 272.904816,283.189880 
	C271.273804,287.540619 269.038696,291.662354 267.328125,295.987213 
	C266.802643,297.315857 267.131592,298.982422 267.069244,300.494263 
	C268.529541,300.016571 270.292389,299.909485 271.402649,299.003052 
	C281.039825,291.135040 287.668762,281.122528 292.320862,269.632294 
	C293.033661,267.871704 295.241211,265.713562 296.955566,265.523163 
	C308.530182,264.237732 320.157593,263.425171 331.770660,262.494080 
	C332.391693,262.444305 333.037781,262.706573 334.178436,262.916931 
	C331.881409,274.058533 327.526733,284.200623 322.236298,294.412537 
z"/>
<path fill="#F4CB50" opacity="1.000000" stroke="none" 
	d="
M469.886658,385.812622 
	C464.190735,391.596619 457.191193,393.861603 448.998718,396.171783 
	C450.656769,389.195343 452.177582,383.044342 453.569855,376.864380 
	C454.807739,371.369568 455.994812,365.859650 457.019409,360.322205 
	C457.474274,357.863770 458.243195,356.902496 460.992554,357.611053 
	C473.697906,360.885345 478.509491,375.410461 469.886658,385.812622 
z"/>
<path fill="#000000" opacity="1.000000" stroke="none" 
	d="
M390.077515,132.068039 
	C388.626740,143.122772 385.588226,154.002518 387.840881,165.402756 
	C388.723114,169.867538 387.985260,174.652435 387.985260,179.546158 
	C385.765228,180.258484 383.576843,180.960648 380.340240,181.999146 
	C375.046295,163.675674 378.325775,147.134064 389.315613,131.671539 
	C389.851685,131.793610 389.964600,131.930832 390.077515,132.068039 
z"/>
<path fill="#000000" opacity="1.000000" stroke="none" 
	d="
M259.998108,156.792664 
	C259.913788,148.564148 263.736603,142.215805 267.495148,135.832993 
	C268.644104,133.881836 269.658051,131.851196 271.597595,130.181183 
	C270.058014,138.685623 268.650116,147.218262 266.839600,155.664612 
	C266.562012,156.959702 264.565216,158.197159 263.093170,158.790848 
	C262.383514,159.077026 261.045044,157.804001 259.998108,156.792664 
z"/>
<path fill="#D49E3D" opacity="1.000000" stroke="none" 
	d="
M319.787933,472.594910 
	C318.533142,472.962830 317.022797,473.082031 315.175049,473.044495 
	C316.402557,472.707245 317.967499,472.526733 319.787933,472.594910 
z"/>
<path fill="#BE8237" opacity="1.000000" stroke="none" 
	d="
M314.036011,472.625336 
	C312.754639,472.946899 311.309692,472.972687 309.431763,472.998657 
	C308.998779,472.998779 309.000000,473.000000 308.965088,472.608276 
	C308.893982,471.956421 308.857727,471.696289 308.821503,471.436188 
	C310.505127,471.733978 312.188782,472.031769 314.036011,472.625336 
z"/>
<path fill="#000000" opacity="1.000000" stroke="none" 
	d="
M389.589172,131.435715 
	C389.880310,130.899948 390.321014,130.584839 390.761688,130.269730 
	C390.720886,130.805862 390.680084,131.341995 390.358398,131.973083 
	C389.964600,131.930832 389.851685,131.793610 389.589172,131.435715 
z"/>
<path fill="#C68A36" opacity="1.000000" stroke="none" 
	d="
M308.622253,471.365479 
	C308.857727,471.696289 308.893982,471.956421 308.965698,472.608887 
	C308.707458,472.686127 308.413696,472.371033 308.065430,471.722748 
	C308.010895,471.389587 308.423004,471.294769 308.622253,471.365479 
z"/>
</svg>